<svg width="18" height="18" viewBox="0 0 18 18" fill="none" xmlns="http://www.w3.org/2000/svg">
<path fill-rule="evenodd" clip-rule="evenodd" d="M8.99776 1C4.58269 1.00472 1.00472 4.58269 1 8.99776V15.2817C1 16.2282 1.7673 16.9955 2.71381 16.9955H4.9989C5.31441 16.9955 5.57018 16.7397 5.57018 16.4242V10.7116C5.57018 10.3961 5.31441 10.1403 4.9989 10.1403H2.71381C2.51876 10.1422 2.32549 10.1777 2.14253 10.2454V8.99772C2.14253 5.21168 5.21172 2.14249 8.99776 2.14249C12.7838 2.14249 15.853 5.21168 15.853 8.99772V10.2454C15.67 10.1777 15.4768 10.1422 15.2817 10.1403H12.9967C12.6811 10.1403 12.4254 10.3961 12.4254 10.7116V16.4243C12.4254 16.7398 12.6811 16.9955 12.9967 16.9955H15.2817C16.2283 16.9955 16.9955 16.2283 16.9955 15.2817V8.99776C16.9908 4.58269 13.4129 1.00472 8.99776 1ZM2.71381 11.2828H4.42762V15.853H2.71381C2.39829 15.853 2.14253 15.5972 2.14253 15.2817V11.8541C2.14253 11.5386 2.39829 11.2828 2.71381 11.2828ZM15.2817 15.853C15.5972 15.853 15.853 15.5973 15.853 15.2817V11.8541C15.853 11.5386 15.5972 11.2828 15.2817 11.2828H13.5679V15.853H15.2817Z" fill="black"/>
</svg>
