<svg width="14" height="17" viewBox="0 0 14 17" fill="none" xmlns="http://www.w3.org/2000/svg">
<path fill-rule="evenodd" clip-rule="evenodd" d="M6.99728 0.200012C8.89529 0.200012 10.4519 1.66249 10.5535 3.49882L10.5588 3.69008L10.558 6.22501L11.6138 6.22565C12.6255 6.22565 13.466 6.97188 13.6139 7.94285L13.6314 8.09796L13.6369 8.24873V14.7872C13.6369 15.8521 12.8101 16.7273 11.7646 16.8047L11.6138 16.8103H2.38308C1.31817 16.8103 0.442927 15.9834 0.36556 14.938L0.360001 14.7872V8.24873C0.360001 7.18383 1.18684 6.30858 2.2323 6.23121L2.38308 6.22565L3.435 6.22501L3.43574 3.69008C3.43574 1.89342 4.82784 0.410289 6.60982 0.220523L6.80219 0.205184L6.99728 0.200012ZM11.6138 7.5077C11.9885 7.5077 12.299 7.78696 12.3481 8.1483L12.3549 8.24873V14.7872C12.3549 15.1618 12.0756 15.4723 11.7143 15.5214L11.6138 15.5282H2.38308C2.00845 15.5282 1.69797 15.249 1.64883 14.8876L1.64205 14.7872V8.24873C1.64205 7.8741 1.92131 7.56362 2.28264 7.51448L2.38308 7.5077H11.6138ZM9.27149 3.53903C9.19109 2.39097 8.2012 1.48206 6.99728 1.48206C5.74101 1.48206 4.71779 2.47172 4.71779 3.69008V6.32565L4.81779 6.42565H9.17676L9.27676 6.32565V3.69008L9.27149 3.53903Z" fill="black"/>
<path d="M6.9959 9.56667C7.54041 9.56667 7.9818 10.0081 7.9818 10.5526C7.9818 10.8923 7.80864 11.202 7.52765 11.3825L7.43574 11.5508V12.9564C7.43574 13.2 7.23826 13.3974 6.99471 13.3974C6.75114 13.3974 6.55369 13.2 6.55369 12.9564V11.5493L6.46218 11.3813C6.18231 11.2006 6.01 10.8914 6.01 10.5526C6.01 10.0081 6.45139 9.56667 6.9959 9.56667Z" fill="black"/>
</svg>
