<svg width="30" height="30" viewBox="0 0 30 30" fill="none" xmlns="http://www.w3.org/2000/svg">
<path fill-rule="evenodd" clip-rule="evenodd" d="M15 5C9.47961 5.0059 5.0059 9.47961 5 15V22.8571C5 24.0406 5.95939 25 7.14286 25H10C10.3945 25 10.7143 24.6802 10.7143 24.2857V17.1428C10.7143 16.7483 10.3945 16.4285 10 16.4285H7.14286C6.89898 16.4309 6.65732 16.4754 6.42856 16.56V14.9999C6.42856 10.2661 10.2661 6.42851 15 6.42851C19.7338 6.42851 23.5714 10.2661 23.5714 14.9999V16.56C23.3426 16.4754 23.101 16.4309 22.8571 16.4285H20C19.6055 16.4285 19.2857 16.7483 19.2857 17.1428V24.2857C19.2857 24.6802 19.6055 25 20 25H22.8571C24.0406 25 25 24.0406 25 22.8571V15C24.9941 9.47961 20.5204 5.0059 15 5ZM7.14286 17.8571H9.28571V23.5714H7.14286C6.74835 23.5714 6.42856 23.2516 6.42856 22.8571V18.5714C6.42856 18.1769 6.74835 17.8571 7.14286 17.8571ZM22.8571 23.5714C23.2516 23.5714 23.5714 23.2516 23.5714 22.8571V18.5714C23.5714 18.1769 23.2516 17.8571 22.8571 17.8571H20.7142V23.5714H22.8571Z" fill="black"/>
</svg>
