<svg width="30" height="30" viewBox="0 0 30 30" fill="none" xmlns="http://www.w3.org/2000/svg">
<path fill-rule="evenodd" clip-rule="evenodd" d="M10 4H20C22.5002 4 23 5.5199 23 7.07797V25.4273C23 25.7258 22.4611 26.1485 21.9966 25.8878C18.7232 23.6078 15 21.0999 15 21.0999C15 21.0999 11.4945 23.545 8.08709 25.8878C7.59495 26.1824 7 25.8507 7 25.4273V7.07797C7 5.41503 7.57086 4 10 4ZM15.3703 19.521C18.4225 21.5974 21.6667 23.898 21.6667 23.898V7.07797C21.6667 6.45366 21.5005 5.36799 20 5.36799H10C8.59718 5.36799 8.33333 6.30396 8.33333 7.07797V23.898C8.33333 23.898 11.5771 21.6448 14.6558 19.521C14.8743 19.3763 15.1289 19.3763 15.3703 19.521Z" fill="black"/>
<path d="M21.9966 25.8878L21.9535 25.9496L21.9599 25.9532L21.9966 25.8878ZM15 21.0999L15.0419 21.0376L14.9993 21.0089L14.9571 21.0383L15 21.0999ZM8.08709 25.8878L8.12568 25.9523L8.12958 25.9496L8.08709 25.8878ZM21.6667 23.898L21.6233 23.9592L21.7417 24.0431V23.898H21.6667ZM15.3703 19.521L15.4126 19.4589L15.4089 19.4567L15.3703 19.521ZM8.33333 23.898H8.25833V24.0414L8.37612 23.9596L8.33333 23.898ZM14.6558 19.521L14.6144 19.4585L14.6132 19.4593L14.6558 19.521ZM20 3.925H10V4.075H20V3.925ZM23.075 7.07797C23.075 6.29355 22.9497 5.50374 22.4972 4.90928C22.0416 4.31064 21.266 3.925 20 3.925V4.075C21.2342 4.075 21.9586 4.44931 22.3779 5.00014C22.8004 5.55515 22.925 6.30433 22.925 7.07797H23.075ZM23.075 25.4273V7.07797H22.925V25.4273H23.075ZM21.9599 25.9532C22.2209 26.0997 22.5005 26.0521 22.7097 25.9323C22.8145 25.8723 22.9043 25.793 22.9687 25.7066C23.0323 25.6213 23.075 25.5234 23.075 25.4273H22.925C22.925 25.4804 22.9003 25.5473 22.8484 25.617C22.7972 25.6858 22.7233 25.7517 22.6352 25.8022C22.4588 25.9032 22.2367 25.9366 22.0333 25.8224L21.9599 25.9532ZM15 21.0999C14.9581 21.1621 14.9581 21.1621 14.9581 21.1621C14.9582 21.1621 14.9582 21.1621 14.9583 21.1622C14.9584 21.1622 14.9585 21.1624 14.9588 21.1625C14.9592 21.1628 14.9599 21.1633 14.9608 21.1639C14.9626 21.1651 14.9653 21.1669 14.9689 21.1693C14.976 21.1741 14.9867 21.1813 15.0007 21.1908C15.0287 21.2097 15.0703 21.2377 15.1244 21.2742C15.2326 21.3473 15.3908 21.4541 15.5909 21.5895C15.991 21.8602 16.5587 22.2449 17.2286 22.7008C18.5684 23.6128 20.3173 24.8096 21.9537 25.9494L22.0394 25.8263C20.4024 24.6861 18.653 23.4889 17.313 22.5768C16.6429 22.1208 16.0752 21.736 15.6749 21.4652C15.4748 21.3298 15.3166 21.2229 15.2083 21.1499C15.1542 21.1134 15.1126 21.0853 15.0845 21.0664C15.0705 21.0569 15.0598 21.0497 15.0527 21.0449C15.0491 21.0425 15.0464 21.0407 15.0446 21.0395C15.0437 21.0389 15.043 21.0384 15.0426 21.0381C15.0424 21.038 15.0422 21.0378 15.0421 21.0378C15.042 21.0377 15.042 21.0377 15.0419 21.0377C15.0419 21.0377 15.0419 21.0376 15 21.0999ZM8.12958 25.9496C9.83343 24.7781 11.5618 23.581 12.8641 22.6769C13.5153 22.2248 14.06 21.8459 14.4419 21.5801C14.6328 21.4471 14.7831 21.3425 14.8856 21.271C14.9369 21.2353 14.9762 21.2079 15.0027 21.1894C15.0159 21.1802 15.026 21.1732 15.0327 21.1685C15.0361 21.1661 15.0387 21.1643 15.0403 21.1632C15.0412 21.1626 15.0418 21.1621 15.0423 21.1618C15.0425 21.1617 15.0426 21.1616 15.0427 21.1615C15.0428 21.1614 15.0428 21.1614 15.0429 21.1614C15.0429 21.1614 15.0429 21.1614 15 21.0999C14.9571 21.0383 14.9571 21.0383 14.9571 21.0384C14.957 21.0384 14.957 21.0384 14.9569 21.0385C14.9568 21.0385 14.9567 21.0386 14.9565 21.0388C14.956 21.0391 14.9554 21.0395 14.9545 21.0401C14.9528 21.0413 14.9503 21.0431 14.9469 21.0454C14.9402 21.0501 14.9302 21.0571 14.9169 21.0664C14.8904 21.0848 14.8511 21.1122 14.7998 21.148C14.6973 21.2194 14.5471 21.324 14.3562 21.457C13.9743 21.7228 13.4297 22.1016 12.7786 22.5537C11.4763 23.4578 9.74819 24.6547 8.0446 25.826L8.12958 25.9496ZM6.925 25.4273C6.925 25.6759 7.09844 25.887 7.32703 25.9946C7.55782 26.1033 7.8562 26.1134 8.12561 25.9522L8.04857 25.8235C7.82584 25.9568 7.58067 25.9483 7.39095 25.8589C7.19903 25.7686 7.075 25.6021 7.075 25.4273H6.925ZM6.925 7.07797V25.4273H7.075V7.07797H6.925ZM10 3.925C8.77062 3.925 7.9953 4.28371 7.53036 4.86872C7.06824 5.45017 6.925 6.24046 6.925 7.07797H7.075C7.075 6.25254 7.21719 5.50384 7.64779 4.96205C8.07556 4.4238 8.80024 4.075 10 4.075V3.925ZM21.6667 23.898C21.71 23.8368 21.71 23.8368 21.71 23.8368C21.71 23.8368 21.7099 23.8368 21.7099 23.8367C21.7098 23.8367 21.7097 23.8365 21.7095 23.8364C21.7091 23.8361 21.7085 23.8357 21.7077 23.8352C21.7061 23.834 21.7038 23.8324 21.7006 23.8302C21.6944 23.8257 21.6851 23.8191 21.6728 23.8105C21.6483 23.7931 21.612 23.7674 21.5646 23.7339C21.4699 23.6669 21.3312 23.5689 21.1553 23.4448C20.8034 23.1966 20.3024 22.8441 19.7061 22.4267C18.5134 21.5919 16.939 20.4975 15.4125 19.459L15.3282 19.583C16.8538 20.621 18.4276 21.715 19.62 22.5496C20.2162 22.9669 20.7171 23.3193 21.0688 23.5674C21.2447 23.6914 21.3834 23.7894 21.478 23.8563C21.5253 23.8898 21.5616 23.9155 21.5861 23.9329C21.5984 23.9415 21.6077 23.9481 21.6139 23.9525C21.617 23.9547 21.6194 23.9564 21.6209 23.9575C21.6217 23.9581 21.6223 23.9585 21.6227 23.9588C21.6229 23.9589 21.623 23.959 21.6231 23.9591C21.6232 23.9591 21.6232 23.9591 21.6232 23.9592C21.6233 23.9592 21.6233 23.9592 21.6667 23.898ZM21.5917 7.07797V23.898H21.7417V7.07797H21.5917ZM20 5.44299C20.7294 5.44299 21.1203 5.70514 21.3333 6.02998C21.5501 6.36073 21.5917 6.77002 21.5917 7.07797H21.7417C21.7417 6.76162 21.7001 6.3159 21.4588 5.94774C21.2135 5.57367 20.7711 5.29299 20 5.29299V5.44299ZM10 5.44299H20V5.29299H10V5.44299ZM8.40833 7.07797C8.40833 6.69714 8.47369 6.28875 8.7012 5.97693C8.92539 5.66965 9.31695 5.44299 10 5.44299V5.29299C9.28022 5.29299 8.83845 5.53431 8.58002 5.88852C8.3249 6.2382 8.25833 6.6848 8.25833 7.07797H8.40833ZM8.40833 23.898V7.07797H8.25833V23.898H8.40833ZM14.6132 19.4593C13.0738 20.5212 11.4931 21.6155 10.2973 22.4443C9.69941 22.8587 9.19773 23.2067 8.84551 23.4512C8.6694 23.5734 8.53066 23.6697 8.43595 23.7354C8.38859 23.7683 8.35224 23.7936 8.32773 23.8106C8.31548 23.8191 8.30618 23.8256 8.29995 23.8299C8.29683 23.832 8.29448 23.8337 8.29291 23.8348C8.29212 23.8353 8.29153 23.8357 8.29114 23.836C8.29094 23.8361 8.29079 23.8362 8.29069 23.8363C8.29065 23.8363 8.29061 23.8364 8.29058 23.8364C8.29056 23.8364 8.29055 23.8364 8.33333 23.898C8.37612 23.9596 8.37613 23.9596 8.37616 23.9596C8.37618 23.9596 8.37622 23.9595 8.37627 23.9595C8.37637 23.9594 8.37652 23.9593 8.37671 23.9592C8.37711 23.9589 8.3777 23.9585 8.37848 23.958C8.38005 23.9569 8.3824 23.9552 8.38552 23.9531C8.39175 23.9488 8.40104 23.9423 8.41329 23.9338C8.4378 23.9168 8.47415 23.8915 8.5215 23.8587C8.6162 23.7929 8.75493 23.6966 8.93103 23.5744C9.28323 23.33 9.78489 22.982 10.3828 22.5676C11.5785 21.7388 13.1591 20.6446 14.6984 19.5827L14.6132 19.4593ZM15.4089 19.4567C15.145 19.2985 14.8591 19.2964 14.6144 19.4585L14.6972 19.5835C14.8894 19.4562 15.1128 19.4541 15.3318 19.5853L15.4089 19.4567Z" fill="black"/>
</svg>
