<svg width="32" height="30" viewBox="0 0 32 30" fill="none" xmlns="http://www.w3.org/2000/svg">
<path fill-rule="evenodd" clip-rule="evenodd" d="M16.7884 17.9657C16.7884 18.3567 16.43 18.6811 16.0089 18.6811C15.5789 18.6811 15.2205 18.3567 15.2205 17.9657V6.6104L15.2832 5.02981L14.3335 5.93657L12.452 7.76673C12.3086 7.91647 12.0936 7.99133 11.9054 7.99133C11.4933 7.99133 11.1887 7.71681 11.1887 7.34246C11.1887 7.15113 11.2783 7.00139 11.4306 6.85997L15.4355 3.24125C15.6326 3.05823 15.8029 3 16.0089 3C16.206 3 16.3763 3.05823 16.5734 3.24125L20.5783 6.85997C20.7307 7.00139 20.8113 7.15113 20.8113 7.34246C20.8113 7.71681 20.4977 7.99133 20.0945 7.99133C19.9064 7.99133 19.7003 7.91647 19.5569 7.76673L17.6665 5.93657L16.7347 5.02981L16.7884 6.6104V17.9657ZM26.1333 23.7889C26.1333 25.9102 24.9686 27 22.648 27H9.35193C7.04035 27 5.86664 25.9185 5.86664 23.7889V12.9161C5.86664 10.7865 7.04035 9.71335 9.35193 9.71335H12.6312V11.1858H9.38777C8.13342 11.1858 7.45249 11.8014 7.45249 12.991V23.714C7.45249 24.9036 8.13342 25.5192 9.38777 25.5192H22.6122C23.8396 25.5192 24.5474 24.9036 24.5474 23.714V12.991C24.5474 11.8014 23.8396 11.1858 22.6122 11.1858H19.3777V9.71335H22.648C24.9686 9.71335 26.1333 10.7948 26.1333 12.9161V23.7889Z" fill="black"/>
</svg>
