<svg width="30" height="30" viewBox="0 0 30 30" fill="none" xmlns="http://www.w3.org/2000/svg">
<path fill-rule="evenodd" clip-rule="evenodd" d="M8.71889 7L2.5 23V23H4.86318L6.60445 18.1628H13.3209L15.1865 23H17.5497L10.9577 7H8.71889ZM12.5746 16.4264H7.22636L7.22633 16.4264L8.96764 11.8372C9.27948 11.0081 9.50443 10.0923 9.7151 9.23462C9.75653 9.06596 9.79741 8.89954 9.83829 8.73648C10.087 9.60466 10.4602 10.721 10.9577 12.0853L12.5746 16.4264ZM17.5497 23L21.6542 12.3333H23.1468L27.5 23H25.8831L24.6393 19.7752H20.1617L19.0423 23H17.5497ZM24.2662 18.6589H20.6592V18.6589L21.7786 15.4341L21.7788 15.4336C22.0275 14.8136 22.2761 14.1936 22.4005 13.4496C22.5249 14.0697 22.7736 14.8139 23.1467 15.6821L24.2662 18.6589Z" fill="black"/>
</svg>
