<?xml version="1.0" encoding="UTF-8"?>
<svg width="20px" height="16px" viewBox="0 0 20 16" version="1.1" xmlns="http://www.w3.org/2000/svg" xmlns:xlink="http://www.w3.org/1999/xlink">
    <title>right-quotation-sign</title>
    <g id="2.0_文章頁" stroke="none" stroke-width="1" fill="none" fill-rule="evenodd">
        <g id="2.1.2_文章頁_反撥" transform="translate(-25.000000, -604.000000)" fill="#D60C18" fill-rule="nonzero">
            <g id="Group-4-Copy" transform="translate(25.000000, 604.000000)">
                <g id="right-quotation-sign" transform="translate(10.000000, 8.000000) scale(-1, 1) translate(-10.000000, -8.000000) ">
                    <path d="M19.006083,6.40404428 C17.9750482,2.71675418 15.4315409,0.0400707 12.9591394,0.0400707 C12.7605537,0.0400707 12.5621645,0.0573561 12.3688823,0.09153405 C12.2592771,0.1107837 12.1634217,0.1752111 12.1041014,0.2687094 C12.0449774,0.362796975 12.0282813,0.477116325 12.0583343,0.583971525 L12.5672715,2.40443843 C12.6163778,2.5802388 12.7858925,2.69907593 12.9620858,2.6910225 L13.0025493,2.6902368 C13.9194612,2.6902368 15.5951629,4.0644261 16.4494152,7.11863843 C16.4832003,7.23983265 16.5152176,7.36377683 16.5460563,7.49302448 C15.5871095,7.01846168 14.4431303,6.9086601 13.4071848,7.19720843 C11.0701202,7.85110725 9.7010379,10.2840273 10.3543475,12.6206991 C10.8839093,14.5140397 12.6256097,15.8367656 14.5898597,15.8367656 C14.9899775,15.8367656 15.3895059,15.7815702 15.7774453,15.6729472 C17.3185958,15.2421872 18.4773069,13.9626747 19.040261,12.0709055 C19.5484124,10.3641687 19.5356448,8.29875983 19.006083,6.40404428 Z" id="Path"></path>
                    <path d="M2.7672354,0.04046355 C2.56904257,0.04046355 2.3704569,0.0573561 2.17737112,0.09153405 C2.0679624,0.11039085 1.97191057,0.1752111 1.91278665,0.2687094 C1.85366272,0.362796975 1.8369666,0.477116325 1.8668232,0.583971525 L2.3759568,2.40443842 C2.42506305,2.5802388 2.59143503,2.69907592 2.77077105,2.6910225 L2.81084175,2.6902368 C3.72775365,2.6902368 5.40365175,4.0644261 6.25790407,7.11863842 C6.2918856,7.24061835 6.32390288,7.36456253 6.35454517,7.49302448 C5.39520547,7.01846168 4.25161912,6.9086601 3.21567367,7.19720842 C0.879001875,7.85110725 -0.490473225,10.2840273 0.163229175,12.6206991 C0.692790975,14.5140397 2.43449145,15.8367656 4.39874145,15.8367656 C4.79885917,15.8367656 5.19838762,15.7815702 5.58652342,15.6729472 C7.12747755,15.2421871 8.28618862,13.9626747 8.8493391,12.0709055 C9.35729415,10.3641687 9.34472295,8.2985634 8.81496473,6.40365142 C7.78334062,2.71675417 5.24022615,0.04046355 2.7672354,0.04046355 Z" id="Path"></path>
                </g>
            </g>
        </g>
    </g>
</svg>